HIERARCHY
ROOT Hip
{
	OFFSET -1.266827 -0.020197 0.004786
	CHANNELS 6 Xposition Yposition Zposition Xrotation Yrotation Zrotation
	JOINT LowerSpine
	{
		OFFSET 0.035781 0.150496 0.259874
		CHANNELS 6 Xposition Yposition Zposition Xrotation Yrotation Zrotation
		JOINT MiddleSpine
		{
			OFFSET -0.002580 -0.010850 0.237154
			CHANNELS 3 Xrotation Yrotation Zrotation
			JOINT Chest
			{
				OFFSET 0.013598 0.057192 0.293449
				CHANNELS 3 Xrotation Yrotation Zrotation
				JOINT Neck
				{
					OFFSET 0.002863 0.012040 0.661279
					CHANNELS 6 Xposition Yposition Zposition Xrotation Yrotation Zrotation
					JOINT Head
					{
						OFFSET -0.023497 -0.098818 0.373433
						CHANNELS 3 Xrotation Yrotation Zrotation
						End Site
						{
							OFFSET -0.000370 -0.001558 0.053628
						}
					}
				}
				JOINT LClavicle
				{
					OFFSET 0.012940 -0.205338 0.638168
					CHANNELS 6 Xposition Yposition Zposition Xrotation Yrotation Zrotation
					JOINT LShoulder
					{
						OFFSET 0.375768 0.062903 0.091535
						CHANNELS 3 Xrotation Yrotation Zrotation
						JOINT LForearm
						{
							OFFSET 0.807693 -0.184653 -0.002937
							CHANNELS 3 Xrotation Yrotation Zrotation
							JOINT LHand
							{
								OFFSET 0.673358 -0.155837 0.002005
								CHANNELS 3 Xrotation Yrotation Zrotation
								JOINT LFinger1
								{
									OFFSET 0.243394 -0.134341 0.023428
									CHANNELS 6 Xposition Yposition Zposition Xrotation Yrotation Zrotation
									JOINT LFinger11
									{
										OFFSET 0.093394 -0.040351 -0.024433
										CHANNELS 3 Xrotation Yrotation Zrotation
										JOINT LFinger12
										{
											OFFSET 0.063757 -0.027552 -0.016682
											CHANNELS 3 Xrotation Yrotation Zrotation
											End Site
											{
												OFFSET 0.047517 -0.019768 -0.015164
											}
										}
									}
								}
								JOINT LFinger2
								{
									OFFSET 0.262995 -0.069185 0.027054
									CHANNELS 6 Xposition Yposition Zposition Xrotation Yrotation Zrotation
									JOINT LFinger21
									{
										OFFSET 0.120695 -0.027945 0.000344
										CHANNELS 3 Xrotation Yrotation Zrotation
										JOINT LFinger22
										{
											OFFSET 0.066904 -0.015478 0.000210
											CHANNELS 3 Xrotation Yrotation Zrotation
											End Site
											{
												OFFSET 0.052051 -0.012450 -0.003781
											}
										}
									}
								}
								JOINT LFinger3
								{
									OFFSET 0.264762 -0.000293 0.018055
									CHANNELS 6 Xposition Yposition Zposition Xrotation Yrotation Zrotation
									JOINT LFinger31
									{
										OFFSET 0.110994 -0.019154 -0.005693
										CHANNELS 3 Xrotation Yrotation Zrotation
										JOINT LFinger32
										{
											OFFSET 0.063252 -0.010903 -0.003223
											CHANNELS 3 Xrotation Yrotation Zrotation
											End Site
											{
												OFFSET 0.052332 -0.009858 -0.006540
											}
										}
									}
								}
								JOINT LFinger4
								{
									OFFSET 0.256955 0.047111 -0.018169
									CHANNELS 6 Xposition Yposition Zposition Xrotation Yrotation Zrotation
									JOINT LFinger41
									{
										OFFSET 0.071686 0.002576 -0.014420
										CHANNELS 3 Xrotation Yrotation Zrotation
										JOINT LFinger42
										{
											OFFSET 0.052570 0.001897 -0.010559
											CHANNELS 3 Xrotation Yrotation Zrotation
											End Site
											{
												OFFSET 0.051825 -0.000408 -0.013878
											}
										}
									}
								}
								JOINT LFinger0
								{
									OFFSET 0.044192 -0.053686 -0.041941
									CHANNELS 6 Xposition Yposition Zposition Xrotation Yrotation Zrotation
									JOINT LFinger01
									{
										OFFSET 0.082379 -0.099538 -0.033880
										CHANNELS 3 Xrotation Yrotation Zrotation
										JOINT LFinger02
										{
											OFFSET 0.054770 -0.063330 -0.024309
											CHANNELS 3 Xrotation Yrotation Zrotation
											End Site
											{
												OFFSET 0.034685 -0.038218 -0.014659
											}
										}
									}
								}
							}
						}
					}
				}
				JOINT RClavicle
				{
					OFFSET -0.103971 -0.177541 0.638168
					CHANNELS 6 Xposition Yposition Zposition Xrotation Yrotation Zrotation
					JOINT RShoulder
					{
						OFFSET -0.307302 0.225331 0.091552
						CHANNELS 3 Xrotation Yrotation Zrotation
						JOINT RForearm
						{
							OFFSET -0.804372 0.198622 -0.002937
							CHANNELS 3 Xrotation Yrotation Zrotation
							JOINT RHand
							{
								OFFSET -0.671442 0.163895 0.002005
								CHANNELS 3 Xrotation Yrotation Zrotation
								JOINT RFinger1
								{
									OFFSET -0.277815 -0.010421 0.023430
									CHANNELS 6 Xposition Yposition Zposition Xrotation Yrotation Zrotation
									JOINT RFinger11
									{
										OFFSET -0.101562 0.006001 -0.024433
										CHANNELS 3 Xrotation Yrotation Zrotation
										JOINT RFinger12
										{
											OFFSET -0.069335 0.004092 -0.016688
											CHANNELS 3 Xrotation Yrotation Zrotation
											End Site
											{
												OFFSET -0.051329 0.003733 -0.015164
											}
										}
									}
								}
								JOINT RFinger2
								{
									OFFSET -0.265992 0.056581 0.027054
									CHANNELS 6 Xposition Yposition Zposition Xrotation Yrotation Zrotation
									JOINT RFinger21
									{
										OFFSET -0.120357 0.029367 0.000347
										CHANNELS 3 Xrotation Yrotation Zrotation
										JOINT RFinger22
										{
											OFFSET -0.066710 0.016292 0.000210
											CHANNELS 3 Xrotation Yrotation Zrotation
											End Site
											{
												OFFSET -0.052084 0.012308 -0.003781
											}
										}
									}
								}
								JOINT RFinger3
								{
									OFFSET -0.236564 0.118899 0.018057
									CHANNELS 6 Xposition Yposition Zposition Xrotation Yrotation Zrotation
									JOINT RFinger31
									{
										OFFSET -0.107738 0.032850 -0.005693
										CHANNELS 3 Xrotation Yrotation Zrotation
										JOINT RFinger32
										{
											OFFSET -0.061393 0.018732 -0.003223
											CHANNELS 3 Xrotation Yrotation Zrotation
											End Site
											{
												OFFSET -0.051169 0.014750 -0.006540
											}
										}
									}
								}
								JOINT RFinger4
								{
									OFFSET -0.208256 0.157717 -0.018169
									CHANNELS 6 Xposition Yposition Zposition Xrotation Yrotation Zrotation
									JOINT RFinger41
									{
										OFFSET -0.062856 0.034564 -0.014420
										CHANNELS 3 Xrotation Yrotation Zrotation
										JOINT RFinger42
										{
											OFFSET -0.046090 0.025354 -0.010556
											CHANNELS 3 Xrotation Yrotation Zrotation
											End Site
											{
												OFFSET -0.046463 0.022960 -0.013878
											}
										}
									}
								}
								JOINT RFinger0
								{
									OFFSET -0.063625 -0.028049 -0.041938
									CHANNELS 6 Xposition Yposition Zposition Xrotation Yrotation Zrotation
									JOINT RFinger01
									{
										OFFSET -0.118364 -0.051813 -0.033886
										CHANNELS 3 Xrotation Yrotation Zrotation
										JOINT RFinger02
										{
											OFFSET -0.077413 -0.031903 -0.024307
											CHANNELS 3 Xrotation Yrotation Zrotation
											End Site
											{
												OFFSET -0.048174 -0.018518 -0.014659
											}
										}
									}
								}
							}
						}
					}
				}
			}
		}
	}
	JOINT RThigh
	{
		OFFSET -0.293098 0.095593 0.117468
		CHANNELS 6 Xposition Yposition Zposition Xrotation Yrotation Zrotation
		JOINT RShin
		{
			OFFSET -0.021643 0.005146 -1.209168
			CHANNELS 3 Xrotation Yrotation Zrotation
			JOINT RFoot
			{
				OFFSET 0.000000 0.000000 -1.187332
				CHANNELS 3 Xrotation Yrotation Zrotation
				JOINT RToe
				{
					OFFSET -0.063121 -0.265488 -0.130497
					CHANNELS 3 Xrotation Yrotation Zrotation
					End Site
					{
						OFFSET -0.012410 -0.052197 0.000000
					}
				}
			}
		}
	}
	JOINT LThigh
	{
		OFFSET 0.304756 -0.046549 0.117477
		CHANNELS 6 Xposition Yposition Zposition Xrotation Yrotation Zrotation
		JOINT LShin
		{
			OFFSET 0.021643 -0.005145 -1.209177
			CHANNELS 3 Xrotation Yrotation Zrotation
			JOINT LFoot
			{
				OFFSET -0.000000 0.000000 -1.187332
				CHANNELS 3 Xrotation Yrotation Zrotation
				JOINT LToe
				{
					OFFSET -0.063121 -0.265490 -0.130499
					CHANNELS 3 Xrotation Yrotation Zrotation
					End Site
					{
						OFFSET -0.012410 -0.052197 0.000000
					}
				}
			}
		}
	}
}
MOTION
Frames: 4
Frame Time: 0.041667
-0.928700 1.397969 1.489033 -48.523112 -0.463079 -171.647012 0.035781 0.150497 0.259874 -0.000004 -0.000001 -0.000001 9.075198 -3.183403 -0.359743 36.782491 -12.437350 1.855356 0.002862 0.012040 0.661279 0.242573 0.068308 0.035099 0.045438 -0.207574 -0.007452 0.012940 -0.205337 0.638167 0.968728 4.067444 -0.034404 30.144466 -9.224982 -63.485782 0.050719 -0.010487 -14.244016 -0.000015 -0.000009 0.000013 0.243395 -0.134341 0.023428 -0.000005 -0.000010 0.000006 0.000006 0.000005 -0.000005 -0.000005 -0.000014 0.000016 0.262995 -0.069185 0.027053 -0.000001 -0.000005 -0.000005 0.000003 -0.000004 -0.000008 -0.000002 0.000001 0.000015 0.264763 -0.000293 0.018055 -0.000000 -0.000002 -0.000002 0.000005 -0.000007 -0.000005 -0.000000 -0.000006 0.000003 0.256955 0.047111 -0.018169 0.000002 -0.000011 -0.000007 -0.000001 -0.000000 -0.000008 -0.000007 -0.000003 0.000007 0.044192 -0.053687 -0.041941 0.000017 -0.000007 0.000007 -0.000012 -0.000009 -0.000001 0.000001 0.000009 -0.000013 -0.103972 -0.177541 0.638167 -2.548973 -10.595053 -0.236393 22.028608 -49.648594 58.612879 0.083702 -0.008840 29.139704 0.000003 0.000004 -0.000002 -0.277816 -0.010421 0.023430 0.000029 0.000002 -0.000007 0.000009 -0.000015 -0.000005 -0.000030 -0.000004 0.000004 -0.265993 0.056581 0.027054 0.000027 0.000004 -0.000002 0.000002 0.000010 0.000007 0.000030 -0.000009 0.000003 -0.236564 0.118899 0.018057 0.000028 0.000000 -0.000003 -0.000020 -0.000004 0.000007 -0.000083 0.000001 -0.000008 -0.208257 0.157717 -0.018169 0.000033 0.000005 -0.000006 0.000033 0.000002 0.000007 -0.000021 -0.000007 -0.000002 -0.063626 -0.028049 -0.041938 0.000055 0.000016 -0.000002 0.000025 0.000003 -0.000008 0.000032 -0.000012 0.000005 -0.262793 0.318406 0.424139 -104.697627 4.855357 15.570772 71.207413 -12.684723 9.100712 1.569887 0.552128 -1.936967 -6.305758 1.495857 0.082397 0.318692 0.173893 0.373995 -76.830537 5.970509 -6.081333 92.308381 -13.363548 13.907811 -1.026738 -0.316527 1.116169 -53.257393 10.786724 5.420324 
-0.890106 1.441959 1.502263 -49.914995 -0.541845 -171.580649 0.035781 0.150497 0.259873 0.000002 -0.000001 -0.000001 9.074803 -3.055593 -0.305934 36.190393 -12.080538 1.952055 0.002862 0.012040 0.661279 0.294715 0.087609 0.043452 0.055291 -0.249085 -0.008626 0.012940 -0.205337 0.638168 0.877805 3.686855 -0.028257 23.644629 -11.314669 -65.185427 0.044073 -0.008860 -12.805547 -0.000016 -0.000007 0.000013 0.243394 -0.134341 0.023428 -0.000004 -0.000012 0.000006 0.000009 0.000005 -0.000005 -0.000007 -0.000010 0.000017 0.262995 -0.069185 0.027053 0.000001 -0.000002 -0.000006 0.000004 0.000001 -0.000007 -0.000002 -0.000002 0.000016 0.264763 -0.000293 0.018055 0.000000 0.000001 -0.000002 0.000009 -0.000003 -0.000006 -0.000000 -0.000008 0.000002 0.256955 0.047111 -0.018169 0.000002 -0.000011 -0.000005 0.000002 -0.000002 -0.000007 -0.000006 0.000003 0.000007 0.044192 -0.053687 -0.041941 0.000018 0.000001 0.000003 -0.000009 -0.000011 -0.000006 0.000001 0.000005 -0.000013 -0.103971 -0.177541 0.638168 -2.531482 -10.524030 -0.233199 21.338462 -46.285969 65.531260 0.057879 -0.010358 20.391735 0.000007 0.000001 0.000003 -0.277815 -0.010422 0.023431 0.000035 0.000003 -0.000009 0.000012 -0.000015 -0.000008 -0.000025 -0.000003 0.000003 -0.265992 0.056581 0.027054 0.000030 0.000006 0.000003 0.000003 0.000008 0.000001 0.000031 -0.000014 0.000001 -0.236564 0.118899 0.018057 0.000030 -0.000001 0.000001 -0.000023 -0.000003 0.000007 -0.000079 0.000001 -0.000013 -0.208256 0.157717 -0.018169 0.000035 0.000010 -0.000002 0.000031 -0.000001 0.000003 -0.000024 -0.000004 -0.000006 -0.063625 -0.028050 -0.041938 0.000056 0.000017 -0.000002 0.000022 -0.000004 -0.000006 0.000032 -0.000010 0.000008 -0.263771 0.318227 0.424135 -104.872535 3.657417 15.464757 71.342856 -12.694561 9.130465 1.103650 1.060050 -2.740837 -7.016239 1.663508 0.101984 0.318929 0.176816 0.378838 -86.924211 8.034989 -3.122298 91.424821 -13.370024 13.703542 -0.862662 -0.463123 1.338068 -43.375868 9.273727 3.694993 
-0.865049 1.495875 1.518220 -50.597471 -0.478310 -171.980735 0.035781 0.150497 0.259874 -0.000005 -0.000001 -0.000001 9.048771 -2.917580 -0.252186 35.607484 -11.550324 2.102581 0.002862 0.012040 0.661280 0.355267 0.111378 0.053433 0.067385 -0.299312 -0.010011 0.012940 -0.205337 0.638168 0.788103 3.310998 -0.022783 17.232907 -13.159900 -66.972430 0.037400 -0.007642 -11.824248 -0.000017 -0.000009 0.000010 0.243394 -0.134341 0.023428 -0.000004 -0.000011 0.000006 0.000009 0.000004 -0.000007 -0.000009 -0.000010 0.000013 0.262995 -0.069185 0.027053 -0.000000 -0.000002 -0.000006 0.000005 0.000001 -0.000008 -0.000003 -0.000002 0.000015 0.264763 -0.000293 0.018055 0.000001 0.000002 -0.000003 0.000006 -0.000002 -0.000010 0.000001 -0.000009 0.000002 0.256955 0.047111 -0.018169 0.000002 -0.000013 -0.000005 -0.000001 -0.000009 -0.000005 -0.000007 -0.000003 0.000003 0.044192 -0.053687 -0.041941 0.000009 -0.000001 0.000003 -0.000013 -0.000015 -0.000001 -0.000003 0.000008 -0.000011 -0.103971 -0.177541 0.638168 -2.514715 -10.455918 -0.230140 22.497690 -39.886249 71.497628 0.048282 -0.010854 16.254716 0.000006 0.000005 0.000008 -0.277815 -0.010422 0.023430 0.000030 0.000002 -0.000007 0.000015 -0.000011 -0.000003 -0.000027 -0.000005 0.000005 -0.265993 0.056581 0.027054 0.000030 0.000005 -0.000001 0.000002 0.000008 0.000005 0.000022 -0.000010 0.000005 -0.236564 0.118899 0.018057 0.000029 0.000001 -0.000001 -0.000019 -0.000003 0.000005 -0.000083 -0.000000 -0.000016 -0.208257 0.157717 -0.018169 0.000038 0.000009 -0.000003 0.000037 -0.000002 0.000012 -0.000026 -0.000005 -0.000005 -0.063626 -0.028049 -0.041938 0.000058 0.000019 -0.000003 0.000023 -0.000002 -0.000006 0.000030 -0.000017 0.000003 -0.264807 0.317853 0.424115 -103.995846 2.352930 15.445899 71.275845 -12.689700 9.115743 0.608489 1.357528 -3.070367 -7.909134 1.873796 0.129542 0.319147 0.179622 0.383713 -95.853236 8.869949 -0.274329 87.603303 -13.362733 12.819792 -0.606467 -0.507111 1.311735 -31.484269 7.078232 1.997553 
-0.846743 1.560005 1.527409 -50.393945 -0.551667 -172.895980 0.035781 0.150497 0.259874 0.000002 -0.000001 -0.000001 9.001389 -2.769453 -0.197514 35.190429 -11.101783 2.172939 0.002862 0.012040 0.661279 0.424916 0.140377 0.065255 0.081447 -0.356787 -0.011543 0.012940 -0.205337 0.638167 0.700930 2.945494 -0.018023 11.496952 -14.623722 -68.463439 0.030871 -0.006360 -10.755763 -0.000011 -0.000007 0.000013 0.243394 -0.134340 0.023428 -0.000003 -0.000010 0.000006 0.000009 0.000000 -0.000007 -0.000006 -0.000012 0.000013 0.262995 -0.069185 0.027053 0.000002 -0.000002 -0.000005 0.000005 -0.000001 -0.000011 -0.000006 -0.000001 0.000015 0.264763 -0.000293 0.018055 0.000001 0.000003 -0.000003 0.000006 -0.000002 -0.000008 0.000000 -0.000009 0.000002 0.256955 0.047111 -0.018169 0.000004 -0.000010 -0.000004 0.000001 -0.000001 -0.000006 -0.000007 0.000004 0.000005 0.044192 -0.053686 -0.041941 0.000014 0.000001 0.000003 -0.000011 -0.000015 -0.000002 -0.000003 0.000010 -0.000012 -0.103971 -0.177541 0.638167 -2.499681 -10.394808 -0.227418 23.687644 -33.834513 75.571747 0.049544 -0.012186 15.381926 0.000004 0.000006 0.000003 -0.277815 -0.010421 0.023431 0.000027 0.000007 -0.000008 0.000015 -0.000010 -0.000005 -0.000024 -0.000006 0.000001 -0.265992 0.056581 0.027054 0.000027 0.000006 -0.000003 0.000007 0.000009 0.000004 0.000028 -0.000015 -0.000002 -0.236564 0.118899 0.018057 0.000030 0.000005 0.000000 -0.000021 -0.000002 0.000005 -0.000086 0.000004 -0.000006 -0.208256 0.157717 -0.018169 0.000035 0.000010 0.000002 0.000034 -0.000001 0.000008 -0.000025 -0.000003 0.000003 -0.063626 -0.028049 -0.041938 0.000055 0.000018 -0.000001 0.000023 0.000005 -0.000006 0.000032 -0.000014 0.000008 -0.265893 0.317239 0.424074 -102.138758 1.080869 14.775922 71.501719 -12.706014 9.165392 -0.671694 1.713075 -3.111024 -8.441422 1.998920 0.147528 0.319347 0.182310 0.388616 -102.505703 8.777287 1.669549 81.158978 -13.220722 11.336698 -0.082881 -0.500873 1.058675 -19.200652 4.470981 0.756608 
